<svg id="Capa_1" data-name="Capa 1" xmlns="http://www.w3.org/2000/svg" viewBox="0 0 1920 1080"><defs><style>.cls-1{fill:#60c683;opacity:0.8;}.cls-2{fill:none;stroke:#000;stroke-miterlimit:10;stroke-width:2px;}.cls-3{font-size:29.61px;font-family:FuturaBT-Medium, Futura Md BT;font-weight:500;}</style></defs><path class="cls-1" d="M917.79,975.78c-27-1.73-233.27-18.45-360.5-199.74C450.46,623.81,473.35,461,478.91,427l-54.8-14.69L553.85,302.35,588.42,462l-44.73-14.85c-4.63,28-24.85,168.25,67.83,297.54C723.94,901.54,907.1,909.3,928.3,909.83c16,6.81,24.68,24,20.81,40C945.68,963.93,933,974.57,917.79,975.78Z"/><path class="cls-1" d="M550.1,237.53c15-22.57,132.62-192.8,353.24-212.34,185.25-16.4,314.78,84.81,341.49,106.66L1285,91.73l30.33,167.32-155.58-49.9,35.23-31.31c-22-18-133.28-105.65-291.59-90C711.33,106.76,613,261.51,602,279.6c-13.9,10.46-33.13,9.37-45-2C546.43,267.61,543.54,251.31,550.1,237.53Z"/><path class="cls-2" d="M1258,240.67l-98.28-31.52,35.23-31.31c-22-18-133.28-105.65-291.59-90C732.63,104.66,636,228.83,608.88,268.9"/><path class="cls-2" d="M1258,240.67l57.3,18.38q-4.63-25.53-9.28-51.05"/><path class="cls-1" d="M1377.51,298.71c12,24.29,100.65,211.25,7.27,412.07C1306.36,879.42,1153.94,941,1121.66,953.2l14.69,54.8L976.28,950.61l121-109.79,9.51,46.17c26.59-10,158.13-62.61,223.75-207.52,79.6-175.75-5.26-338.26-15.4-356.89-2.11-17.27,8.45-33.38,24.2-38C1353.3,280.48,1368.85,286.13,1377.51,298.71Z"/><text class="cls-3" transform="matrix(0.88, -0.6, 0.56, 0.83, 697.01, 149.71)">C</text><text class="cls-3" transform="matrix(0.91, -0.55, 0.52, 0.86, 715.46, 137.06)">O</text><text class="cls-3" transform="translate(738.73 123.22) rotate(-28.27) scale(1.06 1)">L</text><text class="cls-3" transform="translate(751.57 116.24) rotate(-25.9) scale(1.06 1)">A</text><text class="cls-3" transform="translate(770.15 107.25) rotate(-23.27) scale(1.06 1)">B</text><text class="cls-3" transform="matrix(1, -0.37, 0.34, 0.94, 786.56, 100.05)">O</text><text class="cls-3" transform="translate(812.01 90.83) rotate(-17.09) scale(1.06 1)">R</text><text class="cls-3" transform="translate(828.65 85.67) rotate(-14.45) scale(1.06 1)">A</text><text class="cls-3" transform="translate(848.08 80.62) rotate(-11.56) scale(1.06 1)">C</text><text class="cls-3" transform="translate(870.1 76.24) rotate(-9.42) scale(1.06 1)">I</text><text class="cls-3" transform="translate(878.73 74.61) rotate(-7) scale(1.06 1)">Ó</text><text class="cls-3" transform="matrix(1.06, -0.07, 0.06, 1, 905.54, 71.34)">N</text><text class="cls-3" transform="translate(930.66 69.94) rotate(-1.22) scale(1.06 1)"> </text><text class="cls-3" transform="translate(940.06 69.75) rotate(0.01) scale(1.06 1)">I</text><text class="cls-3" transform="translate(948.86 69.58) rotate(2.29) scale(1.06 1)">N</text><text class="cls-3" transform="translate(973.91 70.69) rotate(5.04) scale(1.06 1)">T</text><text class="cls-3" transform="matrix(1.06, 0.13, -0.13, 0.99, 989.71, 72.07)">E</text><text class="cls-3" transform="translate(1006.18 74.15) rotate(9.49) scale(1.06 1)">R</text><text class="cls-3" transform="translate(1023.39 76.95) rotate(12.16) scale(1.06 1)">D</text><text class="cls-3" transform="translate(1046 81.95) rotate(14.24) scale(1.06 1)">I</text><text class="cls-3" transform="translate(1054.58 84.07) rotate(15.92) scale(1.06 1)">S</text><text class="cls-3" transform="matrix(1.01, 0.34, -0.32, 0.95, 1071.04, 88.7)">C</text><text class="cls-3" transform="translate(1092.3 95.91) rotate(20.41) scale(1.06 1)">I</text><text class="cls-3" transform="translate(1100.64 98.95) rotate(22.01) scale(1.06 1)">P</text><text class="cls-3" transform="translate(1116.03 105.19) rotate(23.95) scale(1.06 1)">L</text><text class="cls-3" transform="translate(1129.45 111.19) rotate(25.41) scale(1.06 1)">I</text><text class="cls-3" transform="translate(1137.49 114.83) rotate(27.51) scale(1.06 1)">N</text><text class="cls-3" transform="translate(1159.7 126.45) rotate(30.37) scale(1.06 1)">A</text><text class="cls-3" transform="translate(1177.52 136.93) rotate(32.86) scale(1.06 1)">R</text><text class="cls-3" transform="matrix(0.88, 0.61, -0.57, 0.82, 1192.17, 146.47)">I</text><text class="cls-3" transform="matrix(0.85, 0.64, -0.6, 0.8, 1199.49, 151.38)">A</text><path class="cls-2" d="M566.53,360.76l21.84,100.87-44.73-14.85c-4.63,28-24.85,168.24,67.83,297.53,99.94,139.41,255.8,161,304,164.47"/><path class="cls-2" d="M566.53,360.76,553.8,301.94,514,336"/><text class="cls-3" transform="translate(517.91 638.8) rotate(70.88) scale(1.06 1)">V</text><text class="cls-3" transform="matrix(0.39, 0.99, -0.93, 0.36, 524.03, 656.53)">A</text><text class="cls-3" transform="translate(531.6 675.82) rotate(66.73) scale(1.06 1)">L</text><text class="cls-3" transform="matrix(0.44, 0.97, -0.91, 0.42, 537.43, 689.31)">I</text><text class="cls-3" transform="matrix(0.47, 0.95, -0.9, 0.44, 541.01, 697.41)">D</text><text class="cls-3" transform="matrix(0.51, 0.93, -0.88, 0.48, 551.06, 717.63)">A</text><text class="cls-3" transform="matrix(0.55, 0.91, -0.86, 0.52, 560.73, 735.29)">C</text><text class="cls-3" transform="matrix(0.58, 0.89, -0.84, 0.54, 572.44, 754.46)">I</text><text class="cls-3" transform="translate(577.22 762.37) rotate(54.47) scale(1.06 1)">Ó</text><text class="cls-3" transform="translate(592.88 784.5) rotate(52.11) scale(1.06 1)">N</text><path class="cls-2" d="M1021.05,910l76.44-69.35,9.5,46.16c26.59-10,158.13-62.6,223.76-207.52,70.76-156.25,11.54-302-9.59-345.54"/><path class="cls-2" d="M1021.05,910l-44.57,40.43L1025,968"/><text class="cls-3" transform="translate(1251.07 848.74) rotate(-44.99) scale(1.06 1)">E</text><text class="cls-3" transform="matrix(0.73, -0.78, 0.73, 0.69, 1262.83, 836.96)">L</text><text class="cls-3" transform="matrix(0.7, -0.8, 0.75, 0.66, 1272.94, 826.32)">A</text><text class="cls-3" transform="translate(1286.59 810.78) rotate(-50.79) scale(1.06 1)">B</text><text class="cls-3" transform="translate(1298.03 796.92) rotate(-53.31) scale(1.06 1)">O</text><text class="cls-3" transform="matrix(0.6, -0.88, 0.83, 0.56, 1314.14, 775.13)">R</text><text class="cls-3" transform="translate(1323.99 760.7) rotate(-57.97) scale(1.06 1)">A</text><text class="cls-3" transform="matrix(0.53, -0.93, 0.87, 0.49, 1334.69, 743.66)">C</text><text class="cls-3" transform="translate(1345.73 724.06) rotate(-62.09) scale(1.06 1)">I</text><text class="cls-3" transform="translate(1350.01 716.34) rotate(-64.1) scale(1.06 1)">Ó</text><text class="cls-3" transform="translate(1361.99 691.6) rotate(-67.06) scale(1.06 1)">N</text><text class="cls-3" transform="matrix(0.38, -0.99, 0.93, 0.36, 1371.68, 668.38)"> </text><text class="cls-3" transform="translate(1375.12 659.55) rotate(-70.51) scale(1.06 1)">P</text><text class="cls-3" transform="translate(1380.86 643.33) rotate(-72.53) scale(1.06 1)">R</text><text class="cls-3" transform="matrix(0.27, -1.03, 0.97, 0.26, 1386.44, 625.92)">O</text><text class="cls-3" transform="matrix(0.23, -1.04, 0.98, 0.21, 1393.19, 600.05)">Y</text><text class="cls-3" transform="matrix(0.19, -1.05, 0.98, 0.18, 1397.21, 581.32)">E</text><text class="cls-3" transform="matrix(0.14, -1.06, 0.99, 0.14, 1400.27, 564.46)">C</text><text class="cls-3" transform="matrix(0.1, -1.06, 1, 0.1, 1403.27, 542.07)">T</text><text class="cls-3" transform="translate(1404.85 527.41) rotate(-86.7) scale(1.06 1)">O</text></svg>