<svg id="Capa_1" data-name="Capa 1" xmlns="http://www.w3.org/2000/svg" viewBox="0 0 1041.5 1005.29"><path d="M545.79,975.78c-27-1.73-233.27-18.45-360.5-199.74C78.46,623.81,101.35,461,106.91,427l-54.8-14.69L181.85,302.35,216.42,462l-44.73-14.85c-4.63,28-24.85,168.25,67.83,297.54C351.94,901.54,535.1,909.3,556.3,909.83c16,6.81,24.68,24,20.81,40C573.68,963.93,561,974.57,545.79,975.78Z" transform="translate(-52.11 -8)" fill="#60c683" opacity="0.8"/><path d="M178.1,237.53c15-22.57,132.62-192.8,353.24-212.34C716.59,8.79,846.12,110,872.83,131.85L913,91.73l30.33,167.32L787.7,209.15l35.23-31.31c-22-18-133.28-105.65-291.59-90C339.33,106.76,241,261.51,230,279.6c-13.9,10.46-33.13,9.37-45-2C174.43,267.61,171.54,251.31,178.1,237.53Z" transform="translate(-52.11 -8)" fill="#60c683" opacity="0.8"/><path d="M886,240.67,787.7,209.15l35.23-31.31c-22-18-133.28-105.65-291.59-90C360.63,104.66,264,228.83,236.88,268.9" transform="translate(-52.11 -8)" fill="none" stroke="#000" stroke-miterlimit="10" stroke-width="2"/><path d="M886,240.67" transform="translate(-52.11 -8)" fill="none" stroke="#000" stroke-miterlimit="10" stroke-width="2"/><path d="M886,240.67l57.3,18.38Q938.65,233.52,934,208" transform="translate(-52.11 -8)" fill="none" stroke="#000" stroke-miterlimit="10" stroke-width="2"/><path d="M1005.51,298.71c12,24.29,100.65,211.25,7.27,412.07C934.36,879.42,781.94,941,749.66,953.2l14.69,54.8L604.28,950.61l121-109.79L734.79,887c26.59-10,158.13-62.61,223.75-207.52,79.6-175.75-5.26-338.26-15.4-356.89-2.11-17.27,8.45-33.38,24.2-38C981.3,280.48,996.85,286.13,1005.51,298.71Z" transform="translate(-52.11 -8)" fill="#60c683" opacity="0.8"/><text transform="matrix(0.88, -0.6, 0.56, 0.83, 272.9, 141.71)" font-size="29.61" font-family="FuturaBT-Medium, Futura Md BT" font-weight="500">C</text><text transform="matrix(0.91, -0.55, 0.52, 0.86, 291.35, 129.06)" font-size="29.61" font-family="FuturaBT-Medium, Futura Md BT" font-weight="500">O</text><text transform="translate(314.62 115.22) rotate(-28.27) scale(1.06 1)" font-size="29.61" font-family="FuturaBT-Medium, Futura Md BT" font-weight="500">L</text><text transform="translate(327.46 108.24) rotate(-25.9) scale(1.06 1)" font-size="29.61" font-family="FuturaBT-Medium, Futura Md BT" font-weight="500">A</text><text transform="translate(346.04 99.25) rotate(-23.27) scale(1.06 1)" font-size="29.61" font-family="FuturaBT-Medium, Futura Md BT" font-weight="500">B</text><text transform="matrix(1, -0.37, 0.34, 0.94, 362.45, 92.05)" font-size="29.61" font-family="FuturaBT-Medium, Futura Md BT" font-weight="500">O</text><text transform="translate(387.9 82.83) rotate(-17.09) scale(1.06 1)" font-size="29.61" font-family="FuturaBT-Medium, Futura Md BT" font-weight="500">R</text><text transform="translate(404.54 77.67) rotate(-14.45) scale(1.06 1)" font-size="29.61" font-family="FuturaBT-Medium, Futura Md BT" font-weight="500">A</text><text transform="translate(423.97 72.62) rotate(-11.56) scale(1.06 1)" font-size="29.61" font-family="FuturaBT-Medium, Futura Md BT" font-weight="500">C</text><text transform="translate(445.99 68.24) rotate(-9.42) scale(1.06 1)" font-size="29.61" font-family="FuturaBT-Medium, Futura Md BT" font-weight="500">I</text><text transform="translate(454.62 66.61) rotate(-7) scale(1.06 1)" font-size="29.61" font-family="FuturaBT-Medium, Futura Md BT" font-weight="500">Ó</text><text transform="matrix(1.06, -0.07, 0.06, 1, 481.44, 63.34)" font-size="29.61" font-family="FuturaBT-Medium, Futura Md BT" font-weight="500">N</text><text transform="translate(506.55 61.94) rotate(-1.22) scale(1.06 1)" font-size="29.61" font-family="FuturaBT-Medium, Futura Md BT" font-weight="500"> </text><text transform="translate(515.96 61.75) rotate(0.01) scale(1.06 1)" font-size="29.61" font-family="FuturaBT-Medium, Futura Md BT" font-weight="500">I</text><text transform="translate(524.75 61.58) rotate(2.29) scale(1.06 1)" font-size="29.61" font-family="FuturaBT-Medium, Futura Md BT" font-weight="500">N</text><text transform="translate(549.81 62.69) rotate(5.04) scale(1.06 1)" font-size="29.61" font-family="FuturaBT-Medium, Futura Md BT" font-weight="500">T</text><text transform="matrix(1.06, 0.13, -0.13, 0.99, 565.61, 64.07)" font-size="29.61" font-family="FuturaBT-Medium, Futura Md BT" font-weight="500">E</text><text transform="translate(582.07 66.15) rotate(9.49) scale(1.06 1)" font-size="29.61" font-family="FuturaBT-Medium, Futura Md BT" font-weight="500">R</text><text transform="translate(599.28 68.95) rotate(12.16) scale(1.06 1)" font-size="29.61" font-family="FuturaBT-Medium, Futura Md BT" font-weight="500">D</text><text transform="translate(621.89 73.95) rotate(14.24) scale(1.06 1)" font-size="29.61" font-family="FuturaBT-Medium, Futura Md BT" font-weight="500">I</text><text transform="translate(630.48 76.07) rotate(15.92) scale(1.06 1)" font-size="29.61" font-family="FuturaBT-Medium, Futura Md BT" font-weight="500">S</text><text transform="matrix(1.01, 0.34, -0.32, 0.95, 646.94, 80.7)" font-size="29.61" font-family="FuturaBT-Medium, Futura Md BT" font-weight="500">C</text><text transform="translate(668.2 87.91) rotate(20.41) scale(1.06 1)" font-size="29.61" font-family="FuturaBT-Medium, Futura Md BT" font-weight="500">I</text><text transform="translate(676.54 90.95) rotate(22.01) scale(1.06 1)" font-size="29.61" font-family="FuturaBT-Medium, Futura Md BT" font-weight="500">P</text><text transform="translate(691.92 97.19) rotate(23.95) scale(1.06 1)" font-size="29.61" font-family="FuturaBT-Medium, Futura Md BT" font-weight="500">L</text><text transform="translate(705.35 103.19) rotate(25.41) scale(1.06 1)" font-size="29.61" font-family="FuturaBT-Medium, Futura Md BT" font-weight="500">I</text><text transform="translate(713.38 106.83) rotate(27.51) scale(1.06 1)" font-size="29.61" font-family="FuturaBT-Medium, Futura Md BT" font-weight="500">N</text><text transform="translate(735.59 118.45) rotate(30.37) scale(1.06 1)" font-size="29.61" font-family="FuturaBT-Medium, Futura Md BT" font-weight="500">A</text><text transform="translate(753.41 128.93) rotate(32.86) scale(1.06 1)" font-size="29.61" font-family="FuturaBT-Medium, Futura Md BT" font-weight="500">R</text><text transform="matrix(0.88, 0.61, -0.57, 0.82, 768.07, 138.47)" font-size="29.61" font-family="FuturaBT-Medium, Futura Md BT" font-weight="500">I</text><text transform="matrix(0.85, 0.64, -0.6, 0.8, 775.38, 143.38)" font-size="29.61" font-family="FuturaBT-Medium, Futura Md BT" font-weight="500">A</text><path d="M194.53,360.76l21.84,100.87-44.73-14.85c-4.63,28-24.85,168.24,67.83,297.53,99.94,139.41,255.8,161,304,164.47" transform="translate(-52.11 -8)" fill="none" stroke="#000" stroke-miterlimit="10" stroke-width="2"/><path d="M194.53,360.76,181.8,301.94,142,336" transform="translate(-52.11 -8)" fill="none" stroke="#000" stroke-miterlimit="10" stroke-width="2"/><text transform="translate(93.8 630.8) rotate(70.88) scale(1.06 1)" font-size="29.61" font-family="FuturaBT-Medium, Futura Md BT" font-weight="500">V</text><text transform="matrix(0.39, 0.99, -0.93, 0.36, 99.92, 648.53)" font-size="29.61" font-family="FuturaBT-Medium, Futura Md BT" font-weight="500">A</text><text transform="translate(107.49 667.82) rotate(66.73) scale(1.06 1)" font-size="29.61" font-family="FuturaBT-Medium, Futura Md BT" font-weight="500">L</text><text transform="matrix(0.44, 0.97, -0.91, 0.42, 113.32, 681.31)" font-size="29.61" font-family="FuturaBT-Medium, Futura Md BT" font-weight="500">I</text><text transform="matrix(0.47, 0.95, -0.9, 0.44, 116.9, 689.41)" font-size="29.61" font-family="FuturaBT-Medium, Futura Md BT" font-weight="500">D</text><text transform="matrix(0.51, 0.93, -0.88, 0.48, 126.95, 709.63)" font-size="29.61" font-family="FuturaBT-Medium, Futura Md BT" font-weight="500">A</text><text transform="matrix(0.55, 0.91, -0.86, 0.52, 136.62, 727.29)" font-size="29.61" font-family="FuturaBT-Medium, Futura Md BT" font-weight="500">C</text><text transform="matrix(0.58, 0.89, -0.84, 0.54, 148.34, 746.46)" font-size="29.61" font-family="FuturaBT-Medium, Futura Md BT" font-weight="500">I</text><text transform="translate(153.11 754.37) rotate(54.47) scale(1.06 1)" font-size="29.61" font-family="FuturaBT-Medium, Futura Md BT" font-weight="500">Ó</text><text transform="translate(168.77 776.5) rotate(52.11) scale(1.06 1)" font-size="29.61" font-family="FuturaBT-Medium, Futura Md BT" font-weight="500">N</text><path d="M649.05,910l76.44-69.35L735,886.8c26.59-10,158.13-62.6,223.76-207.52,70.76-156.25,11.54-302-9.59-345.54" transform="translate(-52.11 -8)" fill="none" stroke="#000" stroke-miterlimit="10" stroke-width="2"/><path d="M649.05,910" transform="translate(-52.11 -8)" fill="none" stroke="#000" stroke-miterlimit="10" stroke-width="2"/><path d="M649.05,910l-44.57,40.43L653,968" transform="translate(-52.11 -8)" fill="none" stroke="#000" stroke-miterlimit="10" stroke-width="2"/><text transform="translate(826.96 840.74) rotate(-44.99) scale(1.06 1)" font-size="29.61" font-family="FuturaBT-Medium, Futura Md BT" font-weight="500">E</text><text transform="matrix(0.73, -0.78, 0.73, 0.69, 838.73, 828.96)" font-size="29.61" font-family="FuturaBT-Medium, Futura Md BT" font-weight="500">L</text><text transform="matrix(0.7, -0.8, 0.75, 0.66, 848.83, 818.32)" font-size="29.61" font-family="FuturaBT-Medium, Futura Md BT" font-weight="500">A</text><text transform="translate(862.48 802.78) rotate(-50.79) scale(1.06 1)" font-size="29.61" font-family="FuturaBT-Medium, Futura Md BT" font-weight="500">B</text><text transform="translate(873.92 788.92) rotate(-53.31) scale(1.06 1)" font-size="29.61" font-family="FuturaBT-Medium, Futura Md BT" font-weight="500">O</text><text transform="matrix(0.6, -0.88, 0.83, 0.56, 890.04, 767.13)" font-size="29.61" font-family="FuturaBT-Medium, Futura Md BT" font-weight="500">R</text><text transform="translate(899.88 752.7) rotate(-57.97) scale(1.06 1)" font-size="29.61" font-family="FuturaBT-Medium, Futura Md BT" font-weight="500">A</text><text transform="matrix(0.53, -0.93, 0.87, 0.49, 910.58, 735.66)" font-size="29.61" font-family="FuturaBT-Medium, Futura Md BT" font-weight="500">C</text><text transform="translate(921.63 716.06) rotate(-62.09) scale(1.06 1)" font-size="29.61" font-family="FuturaBT-Medium, Futura Md BT" font-weight="500">I</text><text transform="translate(925.9 708.34) rotate(-64.1) scale(1.06 1)" font-size="29.61" font-family="FuturaBT-Medium, Futura Md BT" font-weight="500">Ó</text><text transform="translate(937.88 683.6) rotate(-67.06) scale(1.06 1)" font-size="29.61" font-family="FuturaBT-Medium, Futura Md BT" font-weight="500">N</text><text transform="matrix(0.38, -0.99, 0.93, 0.36, 947.57, 660.38)" font-size="29.61" font-family="FuturaBT-Medium, Futura Md BT" font-weight="500"> </text><text transform="translate(951.01 651.55) rotate(-70.51) scale(1.06 1)" font-size="29.61" font-family="FuturaBT-Medium, Futura Md BT" font-weight="500">P</text><text transform="translate(956.75 635.33) rotate(-72.53) scale(1.06 1)" font-size="29.61" font-family="FuturaBT-Medium, Futura Md BT" font-weight="500">R</text><text transform="matrix(0.27, -1.03, 0.97, 0.26, 962.33, 617.92)" font-size="29.61" font-family="FuturaBT-Medium, Futura Md BT" font-weight="500">O</text><text transform="matrix(0.23, -1.04, 0.98, 0.21, 969.08, 592.05)" font-size="29.61" font-family="FuturaBT-Medium, Futura Md BT" font-weight="500">Y</text><text transform="matrix(0.19, -1.05, 0.98, 0.18, 973.1, 573.32)" font-size="29.61" font-family="FuturaBT-Medium, Futura Md BT" font-weight="500">E</text><text transform="matrix(0.14, -1.06, 0.99, 0.14, 976.16, 556.46)" font-size="29.61" font-family="FuturaBT-Medium, Futura Md BT" font-weight="500">C</text><text transform="matrix(0.1, -1.06, 1, 0.1, 979.16, 534.07)" font-size="29.61" font-family="FuturaBT-Medium, Futura Md BT" font-weight="500">T</text><text transform="translate(980.74 519.41) rotate(-86.7) scale(1.06 1)" font-size="29.61" font-family="FuturaBT-Medium, Futura Md BT" font-weight="500">O</text><path d="M413.34,147.45" transform="translate(-52.11 -8)" fill="none" stroke="#000" stroke-miterlimit="10" stroke-width="3"/><path d="M403.12,793.69" transform="translate(-52.11 -8)" fill="none" stroke="#000" stroke-miterlimit="10" stroke-width="3"/></svg>