<svg id="Capa_1" data-name="Capa 1" xmlns="http://www.w3.org/2000/svg" viewBox="0 0 213.24 222.15"><defs><style>.cls-1{fill:#010101;}</style></defs><path class="cls-1" d="M201.61,203.16a2.89,2.89,0,0,1-1.85-3.59l7.33-23.78-13-5.77-16.84,79.44h3.45l26.2-44.55Z" transform="translate(-26.53 -30.2)"/><path class="cls-1" d="M235.45,199.81a20.21,20.21,0,0,0-11.92-16.71l-11.13-4.95-6.29,20.43,6,2a2.89,2.89,0,0,1,1.58,4.2l-26.3,44.7h52.4Z" transform="translate(-26.53 -30.2)"/><path class="cls-1" d="M26.53,249.47H78.46V102.33H26.53ZM55.38,119.64a2.89,2.89,0,0,1,2.89-2.89H69.81a2.88,2.88,0,0,1,2.88,2.89v11.54a2.88,2.88,0,0,1-2.88,2.88H58.27a2.88,2.88,0,0,1-2.89-2.88Zm0,26a2.88,2.88,0,0,1,2.89-2.88H69.81a2.88,2.88,0,0,1,2.88,2.88v11.54A2.88,2.88,0,0,1,69.81,160H58.27a2.89,2.89,0,0,1-2.89-2.89Zm0,26a2.89,2.89,0,0,1,2.89-2.89H69.81a2.89,2.89,0,0,1,2.88,2.89v11.54A2.88,2.88,0,0,1,69.81,186H58.27a2.88,2.88,0,0,1-2.89-2.88Zm0,26a2.88,2.88,0,0,1,2.89-2.88H69.81a2.88,2.88,0,0,1,2.88,2.88v11.54A2.88,2.88,0,0,1,69.81,212H58.27a2.89,2.89,0,0,1-2.89-2.89Zm0,26a2.89,2.89,0,0,1,2.89-2.89H69.81a2.89,2.89,0,0,1,2.88,2.89V235a2.89,2.89,0,0,1-2.88,2.89H58.27A2.89,2.89,0,0,1,55.38,235ZM32.3,119.64a2.89,2.89,0,0,1,2.89-2.89H46.72a2.89,2.89,0,0,1,2.89,2.89v11.54a2.88,2.88,0,0,1-2.89,2.88H35.19a2.88,2.88,0,0,1-2.89-2.88Zm0,26a2.88,2.88,0,0,1,2.89-2.88H46.72a2.88,2.88,0,0,1,2.89,2.88v11.54A2.89,2.89,0,0,1,46.72,160H35.19a2.89,2.89,0,0,1-2.89-2.89Zm0,26a2.89,2.89,0,0,1,2.89-2.89H46.72a2.89,2.89,0,0,1,2.89,2.89v11.54A2.88,2.88,0,0,1,46.72,186H35.19a2.88,2.88,0,0,1-2.89-2.88Zm0,26a2.88,2.88,0,0,1,2.89-2.88H46.72a2.88,2.88,0,0,1,2.89,2.88v11.54A2.89,2.89,0,0,1,46.72,212H35.19a2.89,2.89,0,0,1-2.89-2.89Zm0,26a2.89,2.89,0,0,1,2.89-2.89H46.72a2.89,2.89,0,0,1,2.89,2.89V235a2.89,2.89,0,0,1-2.89,2.89H35.19A2.89,2.89,0,0,1,32.3,235Z" transform="translate(-26.53 -30.2)"/><path class="cls-1" d="M197.29,114.42l2.35-22.54c-.08-.64-.19-1.27-.28-1.91s-.16-1.14-.27-1.69c-.13-.72-.29-1.42-.44-2.13-.11-.48-.2-1-.31-1.44-.18-.74-.38-1.45-.57-2.17-.11-.4-.21-.81-.32-1.2-.22-.74-.44-1.43-.66-2.12-.11-.34-.22-.7-.33-1-.23-.7-.47-1.35-.71-2-.1-.28-.2-.58-.31-.86-.23-.62-.46-1.18-.69-1.74-.1-.27-.21-.56-.32-.81-.21-.51-.4-1-.61-1.41l-.33-.78c-.3-.66-.58-1.26-.83-1.78-7.64,4.14-30.28,15.56-52.51,18.42-1.48.19-3,.35-4.43.46l2.8,26.76a11.14,11.14,0,0,0,3.18,6.65l18.4,18.4a11,11,0,0,0,15.6,0l18.4-18.41a11.21,11.21,0,0,0,3.19-6.67Z" transform="translate(-26.53 -30.2)"/><path class="cls-1" d="M184.7,163l-2.82-4.24-10.35,10.34,5,8.27Z" transform="translate(-26.53 -30.2)"/><path class="cls-1" d="M188.66,167.74l-9.6,16.8a2.88,2.88,0,0,1-2.48,1.45h0a2.88,2.88,0,0,1-2.47-1.4l-6.18-10.3-6.18,10.3a2.88,2.88,0,0,1-2.48,1.4h0a2.88,2.88,0,0,1-2.47-1.45l-9.6-16.8,17.32,81.72H165a2.89,2.89,0,0,1,2.89,2.89h2.95a2.41,2.41,0,0,1,0-.6ZM159.24,203.3A8.66,8.66,0,1,1,167.9,212,8.67,8.67,0,0,1,159.24,203.3Z" transform="translate(-26.53 -30.2)"/><path class="cls-1" d="M151.09,163l8.21,14.37,5-8.27-10.35-10.34Z" transform="translate(-26.53 -30.2)"/><path class="cls-1" d="M178.25,154.26H157.56l10.34,10.35Z" transform="translate(-26.53 -30.2)"/><path class="cls-1" d="M121.92,202.29a2.9,2.9,0,0,1,1.79-1.72l6-2-6.29-20.42-3.34,1.48,0,0-7.76,3.43a20.24,20.24,0,0,0-11.91,16.71L96,249.46h52.39l-26.29-44.69a2.92,2.92,0,0,1-.22-2.48Z" transform="translate(-26.53 -30.2)"/><path class="cls-1" d="M128.71,175.79,136,199.57a2.89,2.89,0,0,1-1.85,3.59l-5.27,1.76,26.2,44.55h3.45L141.73,170Z" transform="translate(-26.53 -30.2)"/><path class="cls-1" d="M109.92,177.82l6-2.68V142.72H84.23V249.47h6l4.36-50.16a26,26,0,0,1,15.32-21.49ZM92.89,160a2.89,2.89,0,1,1-5.77,0v-8.66a2.89,2.89,0,0,1,5.77,0Zm11.54-8.65a2.89,2.89,0,1,1,5.77,0V160a2.89,2.89,0,1,1-5.77,0Zm-5.77,20.19a2.89,2.89,0,0,1-2.89-2.88V160a2.89,2.89,0,1,1,5.78,0v8.66A2.89,2.89,0,0,1,98.66,171.57Z" transform="translate(-26.53 -30.2)"/><path class="cls-1" d="M129.66,85.26a2.93,2.93,0,0,1,.69-2.2,2.88,2.88,0,0,1,2.09-1c27.34-.89,59.65-19.56,60-19.75a2.9,2.9,0,0,1,4,1.06,82.5,82.5,0,0,1,9,28.1c0,.3.07.6.11.91a76.11,76.11,0,0,0,11.42-40V44.28a5.51,5.51,0,0,0-.92-3l-1.08-1.63A5.48,5.48,0,0,0,209,37.33l-.3.06a11.23,11.23,0,0,1-11.89-4.76,5.55,5.55,0,0,0-4.58-2.43H153a30.26,30.26,0,0,0-29.2,22.44L119,70.28,130.49,93.2Z" transform="translate(-26.53 -30.2)"/></svg>